<svg width="22" height="20" viewBox="0 0 22 20" fill="none" xmlns="http://www.w3.org/2000/svg">
<path fill-rule="evenodd" clip-rule="evenodd" d="M21.5 11.75V17.75C21.5 18.5784 20.8284 19.25 20 19.25H2C1.17157 19.25 0.5 18.5784 0.5 17.75V11.75C0.5 10.9216 1.17157 10.25 2 10.25H6.5C6.91421 10.25 7.25 10.5858 7.25 11C7.25 11.4142 6.91421 11.75 6.5 11.75H2V17.75H20V11.75H15.5C15.0858 11.75 14.75 11.4142 14.75 11C14.75 10.5858 15.0858 10.25 15.5 10.25H20C20.8284 10.25 21.5 10.9216 21.5 11.75ZM7.03063 6.28062L10.25 3.06031V11C10.25 11.4142 10.5858 11.75 11 11.75C11.4142 11.75 11.75 11.4142 11.75 11V3.06031L14.9694 6.28062C15.2624 6.57368 15.7376 6.57368 16.0306 6.28062C16.3237 5.98757 16.3237 5.51243 16.0306 5.21938L11.5306 0.719375C11.3899 0.578542 11.1991 0.49941 11 0.49941C10.8009 0.49941 10.6101 0.578542 10.4694 0.719375L5.96938 5.21938C5.67632 5.51243 5.67632 5.98757 5.96938 6.28062C6.26243 6.57368 6.73757 6.57368 7.03063 6.28062ZM17.75 14.75C17.75 14.1287 17.2463 13.625 16.625 13.625C16.0037 13.625 15.5 14.1287 15.5 14.75C15.5 15.3713 16.0037 15.875 16.625 15.875C17.2463 15.875 17.75 15.3713 17.75 14.75Z" fill="#140F17"/>
</svg>
